<svg width="41" height="40" viewBox="0 0 41 40" fill="none" xmlns="http://www.w3.org/2000/svg">
<path d="M38.4837 32.6894C40.0423 34.128 40.0423 36.6458 38.4837 38.0845C37.7643 38.8038 36.8052 39.1635 35.8461 39.1635C34.7671 39.1635 33.8079 38.8038 33.0886 38.0845L20.5 25.4959L7.79153 38.0845C7.07218 38.8038 6.11305 39.1635 5.15392 39.1635C4.0749 39.1635 3.11577 38.8038 2.39642 38.0845C0.837833 36.6458 0.837833 34.128 2.39642 32.6894L14.985 19.9809L2.39642 7.39229C0.837833 5.9536 0.837833 3.43588 2.39642 1.99719C3.83511 0.438601 6.35283 0.438601 7.79153 1.99719L20.5 14.5858L33.0886 1.99719C34.5273 0.438601 37.045 0.438601 38.4837 1.99719C40.0423 3.43588 40.0423 5.9536 38.4837 7.39229L25.8951 20.1008L38.4837 32.6894Z" fill="black"/>
</svg>
