<svg width="263" height="121" viewBox="0 0 263 121" fill="none" xmlns="http://www.w3.org/2000/svg">
<path d="M247.581 13.7137C171.289 -4.57124 91.7371 -4.57124 15.439 13.7137C6.98705 15.8874 0.120605 24.8062 0.120605 33.1942V87.333C0.120605 95.7147 6.98705 104.64 15.439 106.826C91.7371 125.111 171.289 125.111 247.581 106.826C256.033 104.64 262.9 95.7147 262.9 87.333V33.1942C262.9 24.8062 256.033 15.8874 247.581 13.7137Z" fill="#00C4B3"/>
<path d="M28.5775 49.4269C28.0724 48.1099 27.1517 47.6048 25.7452 47.6048H24.6392V36.6914H32.0107C36.2559 36.6914 38.2825 38.002 39.5932 41.544L49.3047 68.6389C50.4171 71.6758 51.2291 76.0168 51.2291 76.0168H51.4272C51.4272 76.0168 52.2328 71.6694 53.243 68.6389L62.9544 41.544C64.2715 38.0084 66.3941 36.6914 70.5369 36.6914H77.4098V47.6048H76.195C74.7821 47.6048 73.8743 48.1099 73.3692 49.4269L58.6006 88.2473H43.3397L28.5839 49.4269H28.5775Z" fill="white"/>
<path d="M82.2496 49.8297C82.2496 48.3081 81.444 47.6048 80.0247 47.6048H75.9841V36.6914H88.2146C92.9648 36.6914 94.9915 38.8139 94.9915 43.5642V75.2112C94.9915 76.6305 95.8035 77.4361 97.21 77.4361H101.251V88.2536H89.0201C84.2699 88.2536 82.2496 86.2333 82.2496 81.3872V49.8361V49.8297ZM82.8634 16.4628H93.9814V28.2969H82.8634V16.4628Z" fill="white"/>
<path d="M107.215 46.8951H100.547V36.6849H107.522V22.6324H120.06V36.6849H131.785V46.8951H120.06V67.7246C120.06 76.2213 126.741 77.4297 130.27 77.4297C131.695 77.4297 132.597 77.2251 132.597 77.2251V88.4582C132.597 88.4582 130.979 88.7587 128.659 88.7587C121.485 88.7587 107.222 86.6425 107.222 69.3421V46.9015L107.215 46.8951Z" fill="white"/>
<path d="M164.64 55.897H166.258V55.4942C166.258 48.1163 163.33 45.3799 156.751 45.3799C154.417 45.3799 149.872 46.0001 149.872 48.8259V51.5431H137.942V46.0896C137.942 36.4868 151.496 35.483 156.847 35.483C174.032 35.483 179.083 44.4785 179.083 55.9993V75.2048C179.083 76.6242 179.901 77.4297 181.314 77.4297H185.355V88.2473H173.821C169.071 88.2473 167.249 85.6196 167.249 82.5828C167.249 81.2657 167.351 80.3579 167.351 80.3579H167.147C167.147 80.3579 163.196 89.4556 151.572 89.4556C142.372 89.4556 133.984 83.6952 133.984 73.3827C133.984 57.2076 156.227 55.8906 164.615 55.8906L164.64 55.897ZM154.731 79.45C161.61 79.45 166.463 72.168 166.463 65.9025V64.6878H164.238C157.569 64.6878 146.95 65.602 146.95 72.7818C146.95 76.2214 149.482 79.45 154.737 79.45H154.731Z" fill="white"/>
<path d="M190.316 29.6075C190.316 28.0923 189.504 27.389 188.091 27.389H184.044V16.4628H196.275C201.025 16.4628 203.154 18.5918 203.154 23.3485V75.2048C203.154 76.6241 203.966 77.4297 205.379 77.4297H209.323V88.2472H197.195C192.336 88.2472 190.316 86.2269 190.316 81.3808V29.6075Z" fill="white"/>
<path d="M215.391 49.8297C215.391 48.3081 214.572 47.6048 213.166 47.6048H209.119V36.6914H221.356C226.106 36.6914 228.126 38.8139 228.126 43.5642V75.2112C228.126 76.6305 228.932 77.4361 230.351 77.4361H234.398V88.2536H222.161C217.411 88.2536 215.391 86.2333 215.391 81.3872V49.8361V49.8297ZM215.992 16.4628H227.11V28.2969H215.992V16.4628Z" fill="white"/>
<path d="M103.2 96.8146H105.323L109.383 111.296H107.618L106.474 107.146H101.909L100.873 111.296H99.083L103.2 96.8146ZM104.236 97.9782H104.191L102.299 105.669H106.09L104.236 97.9782Z" fill="white"/>
<path d="M110.176 111.289V96.8079H111.716V111.289H110.176Z" fill="white"/>
<path d="M113.679 98.7451V96.8143H115.201V98.7451H113.679ZM113.679 111.289V100.554H115.201V111.289H113.679Z" fill="white"/>
<path d="M121.639 103.444C121.664 102.178 121.23 101.552 119.925 101.552C118.871 101.552 118.238 102.07 118.238 103.195C118.238 104.582 119.382 104.748 120.392 105.202C121.946 105.893 123.48 106.283 123.48 108.284C123.48 110.285 122.054 111.589 119.849 111.583C118.922 111.589 117.764 111.276 117.208 110.451C116.563 109.62 116.594 108.898 116.594 108.156H118.046C118.007 109.473 118.449 110.279 119.855 110.279C121.102 110.279 121.901 109.793 121.901 108.476C121.901 106.935 120.367 106.807 119.267 106.334C117.605 105.72 116.658 105.164 116.658 103.297C116.658 101.43 117.956 100.254 119.778 100.254C121.907 100.254 123.141 101.239 123.103 103.431H121.645L121.639 103.444Z" fill="white"/>
<path d="M131.069 107.721C131.197 109.825 130.11 111.583 127.834 111.583C125.833 111.583 124.375 110.215 124.375 105.918C124.375 103.642 124.989 100.267 127.808 100.267C131.286 100.267 131.069 103.553 131.178 106.065H125.98C126.025 107.51 125.75 110.285 127.898 110.285C129.362 110.285 129.758 108.923 129.682 107.728H131.069V107.721ZM129.579 104.825C129.528 103.547 129.611 101.545 127.821 101.545C126.031 101.545 126.038 103.534 125.986 104.825H129.586H129.579Z" fill="white"/>
<path d="M134.349 102.313H134.387C135.039 100.932 135.947 100.305 137.526 100.427V101.942C135.57 101.603 134.425 102.837 134.425 104.8V111.295H132.885V100.561H134.349V102.319V102.313Z" fill="white"/>
<path d="M137.564 100.554H139.137L141.56 109.997H141.624L144.035 100.554H145.62L142.411 111.289H140.723L137.564 100.554Z" fill="white"/>
<path d="M146.458 98.7451V96.8143H147.992V98.7451H146.458ZM146.458 111.289V100.554H147.992V111.289H146.458Z" fill="white"/>
<path d="M150.978 106.385C150.978 107.772 151.086 110.279 153.049 110.279C154.705 110.279 154.852 108.853 154.935 107.536H156.374C156.316 109.614 155.536 111.577 153.152 111.577C149.853 111.577 149.405 108.84 149.405 106.059C149.405 103.438 149.833 100.26 153.1 100.26C155.274 100.26 156.316 101.935 156.284 103.936H154.852C154.846 102.767 154.532 101.545 153.081 101.545C150.863 101.545 150.971 104.864 150.971 106.379L150.978 106.385Z" fill="white"/>
<path d="M163.886 107.721C163.969 109.825 162.889 111.583 160.645 111.583C158.605 111.583 157.192 110.215 157.192 105.918C157.192 103.642 157.774 100.267 160.6 100.267C164.091 100.267 163.886 103.553 163.937 106.065H158.752C158.797 107.51 158.522 110.285 160.677 110.285C162.141 110.285 162.55 108.923 162.467 107.728H163.886V107.721ZM162.377 104.825C162.332 103.547 162.39 101.545 160.619 101.545C158.848 101.545 158.822 103.534 158.752 104.825H162.377Z" fill="white"/>
</svg>
