<svg width="146" height="129" viewBox="0 0 146 129" fill="none" xmlns="http://www.w3.org/2000/svg">
<path d="M120.157 64.2067C120.157 94.8935 95.2826 119.768 64.5957 119.768C33.9088 119.768 9.03784 94.8935 9.03784 64.2067C9.03784 33.5198 33.9124 8.6452 64.5957 8.6452C95.279 8.6452 120.157 33.5198 120.157 64.2067Z" fill="#0033A1"/>
<path d="M112.601 31.0083C119.145 40.4407 122.984 51.8824 122.984 64.2066C122.984 72.2901 121.334 79.9932 118.349 87.0002C120.602 86.6271 122.723 86.3293 124.703 86.0997C127.189 79.2684 128.549 71.899 128.549 64.2066C128.549 50.2714 124.09 37.3767 116.523 26.8715C115.468 28.2133 114.13 29.5659 112.598 31.0083H112.601Z" fill="#76BC21"/>
<path d="M22.8762 112.144C22.869 110.235 23.3605 108.344 24.2898 106.414C13.1531 95.7761 6.20702 80.7861 6.20702 64.2067C6.20702 32.0129 32.4019 5.81798 64.5957 5.81798C75.9118 5.81798 86.4816 9.05781 95.4369 14.6513C98.5547 14.0808 101.228 13.5928 103.219 13.2305C92.4876 5.08606 79.1086 0.249634 64.5957 0.249634C29.2733 0.249634 0.638672 28.8843 0.638672 64.2067C0.638672 83.5882 9.26028 100.957 22.8798 112.686C22.8798 112.51 22.8798 112.33 22.8798 112.144H22.8762Z" fill="#76BC21"/>
<path d="M117.983 97.4194C115.802 97.85 113.706 98.2769 111.679 98.6967C101.041 113.177 83.8985 122.595 64.5958 122.595C56.5196 122.595 48.8201 120.945 41.8202 117.971C38.975 118.932 36.4276 119.815 34.3108 120.55C43.3271 125.405 53.6385 128.164 64.5958 128.164C87.8738 128.164 108.246 115.728 119.433 97.136C118.955 97.2257 118.475 97.319 117.983 97.4194Z" fill="#76BC21"/>
<path d="M117.556 95.2667C123.989 93.9894 138.95 91.3918 140.769 93.566C142.588 95.7403 136.396 99.0985 134.749 100.544C133.102 101.99 131.412 104.279 134.261 103.225C137.11 102.166 146.758 98.9944 144.72 91.8869C142.682 84.7794 120.742 88.8229 117.197 89.4185C113.652 90.0141 91.2678 93.5553 55.1453 104.843C50.3233 106.35 34.9206 110.813 34.9206 110.813C34.9206 110.813 59.2463 83.2725 66.8059 75.2249C74.3619 67.181 104.252 35.7586 110.23 30.2189C116.207 24.6793 117.933 22.0566 116.257 17.7476C114.582 13.4386 112.099 13.8081 107.079 14.7481C102.06 15.6881 46.0932 25.8633 42.4372 26.5234C38.7812 27.1836 38.243 27.8438 37.5469 30.6854C36.8509 33.5269 35.6597 38.7042 35.6203 41.3987C35.5808 44.0931 36.3881 44.4268 38.4654 42.6759C40.5428 40.9251 44.3638 37.452 46.5919 36.2286C48.82 35.0051 48.4791 34.9262 52.4401 34.162C56.4011 33.3978 77.4223 29.7776 85.6098 28.2636C93.7973 26.7495 102.727 24.9376 102.727 24.9376C102.727 24.9376 83.7584 45.4888 75.6714 54.1284C67.5844 62.7679 44.493 87.5636 37.0159 94.6244C29.5389 101.685 25.0397 107.071 25.0648 112.133C25.0899 117.196 25.0504 117.953 25.176 119.104C25.3016 120.256 25.8649 121.085 27.3969 120.626C28.9289 120.163 44.1414 114.602 59.7091 109.909C75.2768 105.216 90.1018 100.713 117.549 95.2702L117.556 95.2667Z" fill="#FFCD00" stroke="#FFCD00" stroke-width="0.33" stroke-miterlimit="10"/>
<path d="M99.7242 46.4253H36.0542V81.8661H99.7242V46.4253Z" fill="#0033A1"/>
<path d="M21.7889 77.8908C24.2753 79.1322 26.8227 79.7636 29.3665 79.7636C32.2081 79.7636 34.594 79.0317 36.4525 77.5894C36.7682 77.3562 36.8328 77.0907 36.8328 76.9113C36.8328 76.6494 36.7359 76.4126 36.5494 76.226C36.3664 76.043 36.1296 75.9462 35.8641 75.9462C35.6596 75.9462 35.4909 75.9928 35.3295 76.1004C34.5725 76.6888 33.6863 77.1373 32.6888 77.4351C31.6771 77.7329 30.6007 77.8836 29.4813 77.8836C27.2568 77.8836 25.0072 77.3275 22.7935 76.226C20.5834 75.1281 18.7393 73.51 17.3113 71.4147C15.8905 69.3302 15.1694 66.8725 15.1694 64.1134C15.1694 61.645 15.808 59.3488 17.0673 57.275C18.3303 55.2012 20.0488 53.54 22.1872 52.3345C24.322 51.129 26.6505 50.5191 29.1117 50.5191C29.754 50.5191 30.4572 50.5908 31.2035 50.7272C31.9462 50.8635 32.5776 51.0321 33.0763 51.2295C33.5607 51.4232 33.9625 51.6528 34.2747 51.9183C34.533 52.1336 34.6622 52.3525 34.6622 52.5605C34.6622 52.6538 34.6083 52.7686 34.5079 52.8978L34.4648 52.948L34.4433 53.0126C34.289 53.4934 34.0271 53.5616 33.7939 53.5616C33.6145 53.5616 33.227 53.5077 32.3946 53.2458C31.6986 53.027 31.1138 52.8547 30.6509 52.7363C30.1809 52.6108 29.6176 52.5318 28.9467 52.4888C27.4075 52.4888 25.915 52.783 24.5085 53.3642C23.1021 53.9455 21.8392 54.7778 20.7485 55.8398C19.6578 56.9018 18.7931 58.1576 18.1796 59.5748C17.5625 60.992 17.2503 62.5204 17.2503 64.1098C17.2503 66.2195 17.7598 68.2 18.7644 69.9939C19.7654 71.7914 21.1611 73.2373 22.9084 74.285C24.6556 75.3362 26.5967 75.8708 28.674 75.8708C30.4285 75.8708 32.0825 75.5945 33.5858 75.0492C35.2075 74.4608 35.8964 73.6786 36.0507 72.3009C36.1009 71.8704 35.9789 70.8012 35.6775 70.3025C35.1824 69.4773 34.1383 69.1149 33.0727 69.1149C32.7606 69.1149 32.4556 69.1472 32.165 69.2118C31.8995 69.2692 31.5048 69.3696 30.9667 69.5167C30.4572 69.6567 29.9621 69.7786 29.4921 69.8827C29.0436 69.9796 28.6633 70.0298 28.3511 70.0298C27.4255 70.0298 26.5608 69.7715 25.7786 69.2512C24.9893 68.7274 24.3507 68.0134 23.8807 67.1236C23.4071 66.2374 23.1703 65.2759 23.1703 64.2749C23.1703 63.2739 23.4358 62.3303 23.956 61.3902C24.4762 60.4502 25.1866 59.686 26.0621 59.1156C26.9267 58.5523 27.8632 58.2652 28.8427 58.2652C29.8975 58.2652 30.9057 58.581 31.8421 59.2017L31.8816 59.2232C32.0358 59.3021 32.1794 59.338 32.3121 59.338C32.5991 59.338 32.8431 59.2339 33.0261 59.033C33.1947 58.8393 33.2808 58.6061 33.2808 58.3334C33.2808 58.1325 33.2091 57.8419 32.8646 57.6015C31.573 56.7476 30.2168 56.3098 28.8319 56.3098C27.8165 56.3098 26.8335 56.5359 25.9078 56.9808C24.9893 57.4221 24.1749 58.0248 23.4824 58.7711C22.79 59.5138 22.241 60.3856 21.8464 61.3615C21.4517 62.3339 21.2508 63.3205 21.2508 64.2892C21.2508 65.2579 21.4266 66.2338 21.7782 67.1308C22.1226 68.0278 22.6285 68.8494 23.2815 69.5741C23.9345 70.3025 24.7023 70.8765 25.5562 71.2891C26.4137 71.7017 27.3501 71.9098 28.3619 71.9098H28.3655C28.9395 71.8704 29.4741 71.8022 29.9513 71.7089C30.4213 71.6192 30.9272 71.508 31.4618 71.3824C31.9282 71.2748 32.2691 71.1958 32.4772 71.1456L32.5525 71.1277C32.7283 71.0882 33.044 71.0165 33.2665 71.0165C33.4638 71.0165 33.9338 71.0057 34.1778 71.3394C34.4433 71.7017 34.3249 72.161 34.3105 72.1897C34.1599 72.4767 34.1814 72.7566 32.5166 73.3198C29.3485 74.3962 26.3635 74.1702 23.8699 72.6669C22.4096 71.7878 21.2472 70.5787 20.4184 69.0754C19.586 67.5685 19.1626 65.9002 19.1626 64.1062C19.1626 62.7967 19.4246 61.5266 19.934 60.3354C20.4471 59.1407 21.1682 58.0858 22.0796 57.1925C22.9909 56.2991 24.0493 55.5959 25.2153 55.1007C26.3814 54.6092 27.6371 54.3581 28.9467 54.3581C29.5638 54.3581 30.3711 54.541 31.3362 54.8998C32.4018 55.2945 33.1409 55.4882 33.5894 55.4882C34.5473 55.4882 35.3833 54.9608 36.0758 53.9203L36.1116 53.8522C36.3269 53.3068 36.4274 52.8583 36.4274 52.4673C36.4274 51.5703 36.0219 50.8061 35.2219 50.1997C34.4756 49.6293 33.5212 49.2095 32.391 48.944C31.286 48.6857 30.1738 48.5529 29.0974 48.5529C26.3168 48.5529 23.6797 49.2454 21.2579 50.6123C18.8397 51.9757 16.8844 53.8773 15.4456 56.2632C14.0069 58.6527 13.2786 61.2898 13.2786 64.0991C13.2786 67.2671 14.0787 70.0728 15.6501 72.4372C17.218 74.7945 19.281 76.6243 21.771 77.8692L21.7889 77.8908Z" fill="white"/>
<path d="M61.1155 74.7729C60.5092 74.2096 59.8382 73.9226 59.1242 73.9226H44.963V51.4304C44.963 51.1613 45.0527 50.9532 45.2464 50.7917C45.4545 50.6159 45.7272 50.5262 46.086 50.5262C46.4448 50.5262 46.6995 50.6052 46.8789 50.7666C47.0511 50.9209 47.1301 51.0967 47.1301 51.3156V71.5941C47.1301 72.1753 47.4853 72.5234 48.0773 72.5234C48.3069 72.5234 48.515 72.4444 48.7015 72.2901C48.8379 72.1753 49.0065 71.9601 49.0065 71.5941V51.294C49.0065 50.5011 48.7159 49.8374 48.1418 49.3279C47.5785 48.8256 46.8897 48.5709 46.086 48.5709C45.2823 48.5709 44.5791 48.84 44.005 49.371C43.4238 49.9091 43.126 50.598 43.126 51.4124V74.8734C43.126 75.4546 43.4669 75.8027 44.0373 75.8027H59.1242C59.2139 75.8027 59.4184 75.8493 59.7593 76.1794C60.0176 76.4234 60.1432 76.6566 60.1432 76.8754C60.1432 77.0584 60.0104 77.2844 59.7557 77.5392C59.4149 77.8764 59.2139 77.9267 59.1242 77.9267H44.2131C43.5888 77.9267 43.0794 77.8621 42.6991 77.7329C42.3403 77.6109 41.9958 77.3598 41.6765 76.9795C41.4003 76.6566 41.2137 76.3301 41.1168 76.0036C41.0164 75.6627 40.9661 75.1963 40.9661 74.6222V49.5791C40.9661 48.9763 40.6253 48.6103 40.0584 48.6103C39.4915 48.6103 39.1292 48.9727 39.1292 49.5791V74.6366C39.1292 76.2009 39.5059 77.4387 40.2557 78.3106C41.1563 79.3259 42.4874 79.839 44.2167 79.839H59.1278C59.8418 79.839 60.5127 79.5591 61.1155 79.003C61.7326 78.4397 62.0448 77.7257 62.0448 76.879C62.0448 76.0323 61.7326 75.3398 61.1191 74.7693L61.1155 74.7729Z" fill="white"/>
<path d="M88.0673 51.7245C88.0673 50.8814 87.7516 50.1602 87.1309 49.5862C86.5174 49.0157 85.7209 48.7251 84.7557 48.7251H84.7055C83.9951 48.8327 83.3852 49.1772 82.908 49.7548C82.4308 50.3253 82.1904 50.989 82.1904 51.7245V68.1569C82.1904 69.2045 81.8747 70.1661 81.2468 71.0164C80.6082 71.8811 79.7507 72.5556 78.6958 73.0292C77.6303 73.5064 76.4893 73.7503 75.3089 73.7503C74.1285 73.7503 73.0055 73.5136 71.9614 73.0507C70.9317 72.5879 70.0958 71.9385 69.4787 71.1133C68.8723 70.3024 68.5673 69.3624 68.5673 68.3148V51.2581C68.5673 51.0608 68.6427 50.8993 68.8113 50.7451C68.9835 50.5836 69.1988 50.5083 69.4715 50.5083C69.7872 50.5083 70.0384 50.5836 70.25 50.7415C70.4259 50.8706 70.512 50.9926 70.512 51.1038V68.9642C70.512 69.5454 70.8743 69.8934 71.4807 69.8934C71.696 69.8934 71.904 69.8145 72.0834 69.6638C72.2234 69.5454 72.3884 69.3337 72.3884 68.9642V51.1038C72.3884 50.293 72.0727 49.6579 71.4412 49.2095C70.8528 48.7897 70.1855 48.5744 69.4607 48.5744C68.736 48.5744 68.0579 48.8327 67.5018 49.3458C66.9349 49.8624 66.6514 50.5082 66.6514 51.2617V68.3327C66.6514 69.8109 67.0712 71.1312 67.9036 72.2506C68.7252 73.3557 69.8159 74.2168 71.147 74.798C72.4638 75.3756 73.8594 75.6699 75.2982 75.6699C76.3602 75.6699 77.4293 75.5048 78.4734 75.1747C79.5282 74.8446 80.4826 74.3495 81.315 73.7001C82.1545 73.0471 82.8291 72.2506 83.317 71.3286C83.8121 70.3993 84.0633 69.3409 84.0633 68.1784V51.7317C84.0633 51.398 84.1422 51.1361 84.3037 50.9316C84.4508 50.7522 84.6409 50.6661 84.91 50.6661C85.2796 50.6661 85.5845 50.7702 85.8393 50.9818C86.0761 51.1792 86.1873 51.4196 86.1873 51.7281V68.8027C86.1873 70.1302 85.8967 71.3824 85.3262 72.5161C84.7521 73.6535 83.9377 74.6545 82.9044 75.4905C81.8639 76.33 80.6763 76.9866 79.374 77.4422C78.0716 77.8943 76.7046 78.1239 75.3053 78.1239C73.4432 78.1239 71.678 77.7329 70.0563 76.9579C68.4418 76.1901 67.1358 75.0958 66.1671 73.7109C65.2091 72.3367 64.7176 70.776 64.7176 69.079V49.7369C64.7176 49.4319 64.6279 49.1843 64.4449 49.0014C64.2691 48.822 64.0431 48.7287 63.7919 48.7287C63.1963 48.7287 62.8447 49.1054 62.8447 49.7369V69.079C62.8447 71.1886 63.4439 73.1117 64.6171 74.7908C65.7868 76.4628 67.3511 77.7616 69.2598 78.6585C71.1578 79.5483 73.1921 80.0004 75.3053 80.0004C77.4186 80.0004 79.5498 79.5304 81.4908 78.6047C83.439 77.679 85.0392 76.3444 86.2375 74.633C87.4466 72.9144 88.0601 70.9518 88.0601 68.8027V51.7281L88.0673 51.7245Z" fill="white"/>
<path d="M92.0786 79.6847C92.3118 79.6847 92.5307 79.5986 92.7065 79.4299C92.8895 79.2577 92.9863 79.0245 92.9863 78.7554V51.1756C92.9863 50.9137 93.0724 50.7164 93.2554 50.5477C93.4528 50.3719 93.7039 50.2894 94.0304 50.2894C94.3784 50.2894 94.6439 50.3683 94.8448 50.5334C95.0278 50.6805 95.1103 50.8599 95.1103 51.1003V76.8826C95.1103 77.6898 95.4117 78.3679 96.0037 78.8989C96.5849 79.4192 97.281 79.6847 98.0703 79.6847C98.8596 79.6847 99.5413 79.4479 100.108 78.9743C100.693 78.4899 100.991 77.8226 100.991 76.9974V52.1479C100.991 51.947 101.009 51.7353 101.045 51.5129C101.073 51.3263 101.098 51.172 101.124 51.0536C101.256 50.9173 101.583 50.8383 102.031 50.8383H106.344C107.521 50.8383 108.626 51.1577 109.634 51.7855C110.653 52.417 111.46 53.2781 112.045 54.3329C112.63 55.3913 112.928 56.5646 112.928 57.8203C112.928 58.8177 112.716 59.8008 112.303 60.7444C111.909 61.6485 111.485 62.2728 111.048 62.6065C110.743 62.7321 110.567 63.0047 110.567 63.3564C110.567 63.708 110.753 64.0273 111.069 64.1923C111.274 64.3143 111.632 64.6372 112.214 65.466C112.694 66.1477 113.114 66.9442 113.462 67.8376C113.807 68.713 113.979 69.5597 113.979 70.3563C113.979 71.2496 113.778 72.1609 113.38 73.0758C112.974 73.9979 112.45 74.8124 111.819 75.5012C111.187 76.1901 110.495 76.7426 109.767 77.1445C109.06 77.5355 108.357 77.7329 107.682 77.7329H104.855C104.6 77.7329 104.381 77.636 104.184 77.4423C103.99 77.2449 103.893 77.0332 103.893 76.7964C103.893 76.5597 103.969 76.3587 104.127 76.1937C104.277 76.0322 104.435 75.9569 104.625 75.9569H106.85C107.603 75.9569 108.389 75.7129 109.193 75.2321C109.986 74.755 110.66 74.0912 111.195 73.2552C111.736 72.4049 112.013 71.4613 112.013 70.4459C112.013 69.4306 111.776 68.5623 111.313 67.7299C110.847 66.8976 110.194 66.2231 109.368 65.7243C108.543 65.222 107.639 64.9673 106.696 64.9673H104.859C104.625 64.9673 104.414 64.8561 104.213 64.63C103.997 64.3897 103.893 64.1349 103.893 63.8443C103.893 63.4748 103.983 63.1554 104.173 62.8756C104.331 62.6424 104.482 62.5276 104.625 62.5276H106.423C107.259 62.5276 108.03 62.3051 108.723 61.8674C109.412 61.4333 109.964 60.8305 110.369 60.0842C110.775 59.338 110.979 58.5486 110.979 57.7342C110.979 56.4067 110.57 55.2263 109.756 54.2289C108.927 53.2063 107.854 52.6897 106.574 52.6897H102.613C102.042 52.6897 101.701 53.0521 101.701 53.6584C101.701 54.2647 102.042 54.6056 102.609 54.6056H106.559C107.241 54.6056 107.811 54.9034 108.299 55.5133C108.809 56.1484 109.056 56.8767 109.056 57.7342C109.056 58.4948 108.791 59.1514 108.245 59.7434C107.711 60.3282 107.105 60.6117 106.401 60.6117H104.611C103.768 60.6117 103.108 60.9776 102.652 61.6952C102.225 62.3625 102.013 63.0873 102.013 63.8407C102.013 64.5942 102.282 65.3404 102.813 65.9468C103.359 66.5639 104.044 66.8796 104.851 66.8796H106.688C107.305 66.8796 107.887 67.0411 108.41 67.364C108.942 67.6905 109.372 68.1282 109.695 68.6736C110.011 69.2117 110.169 69.8073 110.169 70.4424C110.169 71.0774 109.978 71.6802 109.609 72.2255C109.225 72.7924 108.751 73.2517 108.213 73.5889C107.689 73.9154 107.23 74.0804 106.843 74.0804H104.618C103.879 74.0804 103.251 74.3531 102.752 74.8877C102.261 75.4187 102.013 76.0609 102.013 76.8036C102.013 77.5463 102.297 78.2244 102.853 78.7698C103.409 79.3115 104.084 79.5842 104.855 79.5842H107.682C108.988 79.5842 110.298 79.1465 111.575 78.2818C112.841 77.4279 113.886 76.2726 114.686 74.8518C115.486 73.4239 115.891 71.9134 115.891 70.3598C115.891 68.9821 115.561 67.6187 114.919 66.3056C114.341 65.1288 113.674 64.1242 112.935 63.3061C113.243 62.9294 113.53 62.4917 113.782 61.993C114.094 61.3866 114.341 60.7121 114.524 59.9945C114.707 59.2734 114.8 58.5379 114.8 57.8095C114.8 56.2345 114.42 54.7419 113.681 53.3821C112.938 52.0188 111.909 50.9173 110.613 50.1064C109.318 49.292 107.876 48.8794 106.33 48.8794H102.013C100.994 48.8794 100.169 49.2418 99.5665 49.9593L99.5413 49.9916C99.2435 50.4329 99.1036 51.1361 99.1036 52.1443V76.9758C99.1036 77.1947 99.0211 77.3669 98.8453 77.5212C98.6515 77.6862 98.3932 77.7652 98.0524 77.7652C97.7115 77.7652 97.4388 77.6826 97.2487 77.5104C97.0657 77.3454 96.9796 77.1373 96.9796 76.861V51.0967C96.9796 50.2966 96.6746 49.64 96.0755 49.1413C95.4978 48.6569 94.8054 48.413 94.0196 48.413C93.2339 48.413 92.5199 48.6785 91.9566 49.2023C91.3861 49.7333 91.0991 50.397 91.0991 51.172V78.7518C91.0991 79.3331 91.4615 79.6811 92.0678 79.6811L92.0786 79.6847Z" fill="white"/>
</svg>
