<svg width="36" height="56" viewBox="0 0 36 56" fill="none" xmlns="http://www.w3.org/2000/svg">
<path d="M14.2348 27.4648C17.6667 27.4648 20.5051 28.6905 22.592 30.7806V28.2809H31.5491V54.4039H22.592V51.5978C20.6019 53.6911 17.6667 55.22 14.2348 55.22C6.77106 55.22 1.59741 48.9948 1.59741 41.3408C1.59741 33.6868 6.77106 27.4616 14.2348 27.4616V27.4648ZM16.87 47.5143C20.3019 47.5143 22.792 44.9114 22.792 41.3408C22.792 37.7702 20.1535 35.1672 16.87 35.1672C13.5865 35.1672 10.948 37.7186 10.948 41.3408C10.948 44.963 13.2865 47.5143 16.87 47.5143Z" fill="#E1251B"/>
<path d="M21.5825 4.46083C21.5825 1.58371 19.8988 0 17.8409 0C15.7831 0 14.0994 1.58371 14.0994 4.46083C14.2219 14.2888 17.8409 17.4143 17.8409 17.4143C17.8409 17.4143 21.1406 14.5114 21.5825 4.46083Z" fill="#3DAE2B"/>
<path d="M6.86792 7.65724C4.8391 5.61551 2.52967 5.67679 1.06853 7.12825C-0.392606 8.57971 -0.470017 10.8891 1.55558 12.9309C8.56774 19.8172 13.3382 19.485 13.3382 19.485C13.3382 19.485 13.635 15.0984 6.86792 7.65724Z" fill="#3DAE2B"/>
<path d="M28.7269 7.65724C30.7557 5.61551 33.0651 5.67679 34.5262 7.12825C35.9874 8.57971 36.0648 10.8891 34.0392 12.9309C27.027 19.8172 22.2566 19.485 22.2566 19.485C22.2566 19.485 21.9598 15.0984 28.7269 7.65724Z" fill="#3DAE2B"/>
</svg>
