<svg width="170" height="76" viewBox="0 0 170 76" fill="none" xmlns="http://www.w3.org/2000/svg">
<path d="M31.3228 69.454C32.281 69.454 33.0778 69.8877 33.572 70.6038V69.6457H34.9538V75.6419H33.572V74.6484C33.103 75.3494 32.286 75.8285 31.3228 75.8285C29.5879 75.8285 28.3271 74.4467 28.3271 72.6463C28.3271 70.8459 29.593 69.4641 31.3228 69.4641V69.454ZM31.701 74.6434C32.8155 74.6434 33.6224 73.8113 33.6224 72.6413C33.6224 71.4713 32.7903 70.6391 31.701 70.6391C30.6117 70.6391 29.7695 71.4612 29.7695 72.6413C29.7695 73.8214 30.5663 74.6434 31.701 74.6434Z" fill="white"/>
<path d="M44.6467 65.5708V75.6419H43.2649V65.5708H44.6467Z" fill="white"/>
<path d="M54.5666 67.5679C54.5666 68.0722 54.1682 68.4807 53.6538 68.4807C53.1394 68.4807 52.741 68.0722 52.741 67.5679C52.741 67.0636 53.1394 66.6551 53.6538 66.6551C54.1682 66.6551 54.5666 67.0636 54.5666 67.5679ZM54.3447 69.6406V75.6369H52.9629V69.6406H54.3447Z" fill="white"/>
<path d="M64.8698 69.454C65.6767 69.454 66.2869 69.7818 66.5541 70.0037L65.9944 70.8106C65.7372 70.5786 65.3842 70.4374 64.8698 70.4374C64.2141 70.4374 63.9317 70.7047 63.9317 71.1283C63.9317 71.552 64.3301 71.7486 65.0563 71.9806C65.8633 72.2277 66.892 72.6261 66.892 73.8163C66.892 75.3847 65.5354 75.8184 64.3957 75.8184C63.4375 75.8184 62.6508 75.3747 62.2322 74.7745L62.9332 74.0382C63.2509 74.4366 63.8107 74.7745 64.547 74.7745C65.0715 74.7745 65.601 74.5274 65.601 73.8718C65.601 73.2162 64.8647 73.1002 64.0679 72.7825C63.4022 72.5152 62.6155 72.1168 62.6155 71.1889C62.6155 70.1449 63.4678 69.4439 64.8647 69.4439L64.8698 69.454Z" fill="white"/>
<path d="M77.5128 69.454C79.283 69.454 80.6648 70.6845 80.6648 72.5908V72.8026H75.7125C75.7125 74.0332 76.6605 74.709 77.654 74.709C78.4862 74.709 79.0106 74.4417 79.515 73.7962L80.5084 74.3106C79.8781 75.3394 78.824 75.8185 77.5582 75.8185C75.7427 75.8185 74.2903 74.4265 74.2903 72.6211C74.2903 70.8157 75.7427 69.449 77.5078 69.449L77.5128 69.454ZM79.3284 72.0058C79.2124 71.0325 78.4861 70.498 77.5481 70.498C76.5395 70.498 75.8284 71.083 75.7578 72.0058H79.3284Z" fill="white"/>
<path d="M89.8735 69.6406V70.5181C90.0248 70.1903 90.6955 69.454 91.6638 69.454C92.1681 69.454 92.612 69.5952 92.8238 69.7364L92.264 70.9064C92.0874 70.7652 91.7496 70.6492 91.2906 70.6492C90.2013 70.6492 89.8735 71.7133 89.8735 72.021V75.6369H88.4917V69.6406H89.8735Z" fill="white"/>
<path d="M100.706 69.6406L102.577 73.776L104.448 69.6406H106.077L103.031 75.6369H102.118L99.0723 69.6406H100.701H100.706Z" fill="white"/>
<path d="M114.943 67.5679C114.943 68.0722 114.544 68.4807 114.03 68.4807C113.516 68.4807 113.117 68.0722 113.117 67.5679C113.117 67.0636 113.516 66.6551 114.03 66.6551C114.544 66.6551 114.943 67.0636 114.943 67.5679ZM114.721 69.6406V75.6369H113.339V69.6406H114.721Z" fill="white"/>
<path d="M127.889 75.2032C127.667 75.3797 126.976 75.8235 125.851 75.8235C124.081 75.8235 122.573 74.4518 122.573 72.6413C122.573 70.8308 124.086 69.4591 125.851 69.4591C126.976 69.4591 127.667 69.9029 127.889 70.0794L127.384 71.0174C127.188 70.856 126.693 70.5938 126.038 70.5938C124.888 70.5938 124.026 71.4814 124.026 72.6413C124.026 73.8012 124.893 74.6888 126.038 74.6888C126.693 74.6888 127.188 74.4316 127.384 74.2652L127.889 75.2032Z" fill="white"/>
<path d="M138.474 69.454C140.244 69.454 141.621 70.6845 141.621 72.5908V72.8026H136.669C136.669 74.0332 137.617 74.709 138.61 74.709C139.442 74.709 139.967 74.4417 140.471 73.7962L141.465 74.3106C140.834 75.3394 139.78 75.8185 138.515 75.8185C136.699 75.8185 135.247 74.4265 135.247 72.6211C135.247 70.8157 136.699 69.449 138.469 69.449L138.474 69.454ZM140.29 72.0058C140.174 71.0325 139.448 70.498 138.51 70.498C137.501 70.498 136.79 71.083 136.719 72.0058H140.29Z" fill="white"/>
<path d="M33.9403 35.3725C33.9403 37.8437 33.1838 39.8407 31.6658 41.3688C30.1478 42.8969 28.1911 43.6634 25.7855 43.6634C24.6004 43.6634 23.1984 43.3659 21.5694 42.7809C20.2381 42.3018 19.3706 42.0648 18.9622 42.0648C18.2612 42.0648 17.7972 42.332 17.5753 42.8666C17.3534 43.4012 17.187 43.6685 17.076 43.6685C16.8541 43.6685 16.7432 43.5373 16.7432 43.2801C16.7432 43.0583 16.7734 42.7052 16.834 42.2211C16.9247 41.5151 16.9701 40.2946 16.9701 38.5497V35.8264C16.9701 35.4179 17.0609 35.2162 17.2475 35.2162C17.4694 35.2162 17.6358 35.4936 17.7468 36.0433C18.0796 37.995 19.0227 39.6289 20.5709 40.9351C22.1242 42.2413 23.859 42.8969 25.7805 42.8969C27.0009 42.8969 27.9894 42.5186 28.7458 41.7622C29.5023 41.0057 29.8805 40.0223 29.8805 38.8069C29.8805 37.8487 29.5275 37.0368 28.8215 36.3761C28.302 35.897 26.9101 35.2918 24.6458 34.5505C21.862 33.6276 19.8497 32.5131 18.6091 31.2069C17.3635 29.9007 16.7432 28.2315 16.7432 26.2041C16.7432 24.0305 17.4845 22.1898 18.9672 20.6768C20.4499 19.1689 22.2705 18.4125 24.4239 18.4125C25.2409 18.4125 26.6479 18.6697 28.655 19.1841C28.9526 19.2597 29.1745 19.295 29.3207 19.295C30.1377 19.295 30.7479 18.7957 31.1564 17.8022C31.2321 17.6207 31.3229 17.5249 31.4338 17.5249C31.691 17.5249 31.8221 17.7468 31.8221 18.1906L31.7667 19.2395C31.7314 19.3858 31.7112 19.643 31.7112 20.0111C31.7112 21.5241 31.802 23.0673 31.9886 24.6508V24.9282C31.9886 25.2257 31.8776 25.372 31.6557 25.372C31.4691 25.372 31.3229 25.2056 31.2119 24.8727C30.1327 21.1156 27.944 19.2345 24.6458 19.2345C23.4203 19.2345 22.4117 19.5673 21.6098 20.228C20.813 20.8886 20.4146 21.7409 20.4146 22.7697C20.4146 23.7279 20.7474 24.4844 21.4182 25.0341C22.0889 25.5838 23.385 26.2142 25.3165 26.9152C28.6903 28.0953 30.9749 29.2754 32.16 30.4504C33.3452 31.6305 33.9403 33.2695 33.9403 35.3675V35.3725Z" fill="white"/>
<path d="M63.1047 30.5916C63.1047 34.3437 62.0305 37.4654 59.8872 39.9668C57.7438 42.4682 55.0609 43.7139 51.8434 43.7139C49.4025 43.7139 47.4407 42.7557 45.9631 40.8393V53.2302C45.9631 54.259 46.0185 54.9096 46.1295 55.187C46.2404 55.4593 46.4876 55.6358 46.8708 55.7115C47.2541 55.7821 48.2375 55.8375 49.811 55.8779C50.2144 55.8779 50.4161 56.0544 50.4161 56.4074C50.4161 56.6798 50.1741 56.8159 49.695 56.8159H35.67C34.853 56.8159 34.4446 56.6697 34.4446 56.3721C34.4446 56.1149 35.1102 55.9838 36.4467 55.9838C37.5612 55.9838 38.1815 55.8729 38.3126 55.651C38.4437 55.4291 38.5093 54.7281 38.5093 53.553V22.9362C38.5446 22.1646 38.2471 21.6855 37.6167 21.4989C37.3191 21.3879 36.6887 21.3324 35.7255 21.3324H34.6665C34.3689 21.3324 34.2227 21.2215 34.2227 20.9996C34.2227 20.7071 34.4446 20.5962 34.8884 20.6668C38.822 20.5558 42.2715 19.8195 45.2419 18.4579C45.3881 18.6798 45.484 18.9723 45.5193 19.3404L45.6302 20.7222L45.6857 21.6602C46.6893 20.4297 47.6727 19.5875 48.6359 19.1336C49.5992 18.6797 50.8448 18.4528 52.3628 18.4528C55.4441 18.4528 58.001 19.6026 60.0435 21.9023C62.086 24.202 63.1047 27.0967 63.1047 30.5866V30.5916ZM54.9247 30.3697C54.9247 23.3497 53.3361 19.8397 50.169 19.8397C48.767 19.8397 47.5869 20.5003 46.6287 21.8216C46.185 22.447 45.9631 23.4959 45.9631 24.9635V35.8214C45.9631 38.1715 46.2556 39.7752 46.8506 40.6174C47.6979 41.8681 48.8427 42.4934 50.28 42.4934C53.3765 42.4934 54.9247 38.4488 54.9247 30.3647V30.3697Z" fill="white"/>
<path d="M90.2116 40.0727C90.2116 40.3703 89.9141 40.7838 89.319 41.3083C87.7254 42.7658 85.7585 43.497 83.4185 43.497C81.8955 43.497 80.791 43.1793 80.1052 42.5439C79.4193 41.9084 78.9654 40.7737 78.7435 39.1297C77.0742 42.1505 74.7897 43.6634 71.9 43.6634C70.3064 43.6634 69.0153 43.1642 68.0319 42.1707C67.0485 41.1772 66.5593 39.8861 66.5593 38.3026C66.5593 33.6629 70.5686 30.9144 78.5821 30.0672V28.9072C78.5821 25.2258 78.451 22.9564 78.1938 22.1091L78.1384 21.8317C77.6189 19.991 76.3027 19.0681 74.1845 19.0681C72.9591 19.0681 71.9757 19.4211 71.2343 20.1171C70.493 20.8181 70.1198 21.4989 70.1198 22.1595C70.1198 22.5277 70.5636 22.7496 71.4562 22.8252C72.7926 22.9362 73.4583 23.7481 73.4583 25.256C73.4583 26.068 73.1911 26.7387 72.6514 27.2733C72.1118 27.8078 71.4159 28.0751 70.5636 28.0751C69.4843 28.0751 68.6068 27.7524 67.921 27.1068C67.2351 26.4613 66.8922 25.6443 66.8922 24.6458C66.8922 23.0622 67.689 21.625 69.2876 20.3339C70.8813 19.0429 72.9792 18.3974 75.5764 18.3974C79.4344 18.3974 82.1275 19.0782 83.6455 20.4398C84.8709 21.5846 85.4812 23.5716 85.4812 26.4058V35.8567C85.4812 37.6974 85.5013 38.7666 85.5366 39.0641C85.7232 40.6124 86.2578 41.3839 87.1504 41.3839C87.7808 41.3839 88.5625 40.9401 89.4904 40.0576C89.677 39.876 89.8233 39.7802 89.9342 39.7802C90.1208 39.7802 90.2116 39.876 90.2116 40.0626V40.0727ZM78.5771 33.4915V30.7833C74.9763 31.4843 73.1759 33.5116 73.1759 36.8603C73.1759 39.4373 74.0685 40.7283 75.8488 40.7283C76.8523 40.7283 77.5533 40.1736 77.9618 39.0692C78.3703 37.9647 78.5721 36.1038 78.5721 33.4864L78.5771 33.4915Z" fill="white"/>
<path d="M110.919 35.0952C110.919 35.3927 110.732 36.2551 110.364 37.6924C110.218 38.2471 110.011 39.1498 109.754 40.4005C109.678 41.0259 109.567 41.6512 109.421 42.2816L109.254 42.9978H92.3347C91.8506 42.9978 91.316 43.0331 90.7209 43.1087C90.1258 43.1844 89.793 43.2197 89.7173 43.2197C89.3441 43.2197 89.1626 43.1087 89.1626 42.8868L89.2735 42.554C90.7865 39.8206 93.0559 35.7054 96.0767 30.2084C97.3526 28.0449 98.9311 25.3468 100.812 22.1192L101.962 19.9557C101.554 19.88 101.069 19.8448 100.515 19.8448C97.9175 19.8448 96.0162 20.2684 94.8109 21.1156C93.6056 21.9628 92.6121 23.5666 91.8355 25.9217C91.6489 26.4765 91.4471 26.7488 91.2252 26.7488C91.0386 26.7488 90.9479 26.6378 90.9479 26.4159C90.9479 26.305 91.1143 25.4224 91.4471 23.7632L91.9464 21.277L92.3347 18.8462H93.1719L95.3404 18.9572L103.132 19.0126C106.471 19.0479 108.589 18.9924 109.476 18.8462H109.698C109.92 18.8462 110.031 18.9218 110.031 19.0681C110.031 19.4009 108.937 21.5039 106.753 25.372L97.3274 42.0496C99.4455 42.0547 100.691 42.0547 101.059 42.0547C103.808 42.0547 105.83 41.4596 107.131 40.2694C108.281 39.1902 109.249 37.5663 110.026 35.4079C110.172 34.9388 110.359 34.7068 110.586 34.7068C110.813 34.7068 110.919 34.838 110.919 35.0952Z" fill="white"/>
<path d="M127.057 42.6649C127.057 42.9221 126.89 43.0532 126.557 43.0532H112.527C112.084 43.0532 111.862 42.9372 111.862 42.7002C111.862 42.5237 112.285 42.4178 113.143 42.3926C114.403 42.3573 115.145 42.2161 115.367 41.974C115.589 41.7319 115.7 41.0007 115.7 39.7802V23.8389C115.7 22.4319 115.579 21.5896 115.336 21.3123C115.094 21.0349 114.363 20.8937 113.138 20.8937C112.356 20.8937 111.902 20.8735 111.776 20.8382C111.645 20.8029 111.579 20.6718 111.579 20.4499C111.579 20.1927 111.857 20.0616 112.417 20.0616C116.496 20.0263 119.986 19.4009 122.881 18.1805C122.957 18.6243 123.047 19.8397 123.158 21.8267V39.2356C123.158 40.7485 123.3 41.631 123.577 41.8882C123.854 42.1454 124.813 42.2766 126.441 42.2766C126.85 42.2766 127.052 42.4077 127.052 42.6649H127.057Z" fill="white"/>
<path d="M153.21 31.2826C153.21 35.2263 151.652 38.4135 148.535 40.8443C146.084 42.7607 143.396 43.7189 140.466 43.7189C136.976 43.7189 133.961 42.4733 131.424 39.987C128.882 37.5007 127.611 34.5606 127.611 31.1716C127.611 27.7826 128.882 24.6206 131.424 22.1343C133.966 19.648 137.037 18.4024 140.638 18.4024C144.239 18.4024 147.048 19.6632 149.514 22.1898C151.98 24.7113 153.215 27.7423 153.215 31.2826H153.21ZM144.803 31.338C144.803 26.7689 144.491 23.6372 143.865 21.9427C143.164 20.0616 142.04 19.1236 140.492 19.1236C139.054 19.1236 137.93 20.112 137.118 22.0788C136.306 24.0507 135.902 26.7689 135.902 30.2285C135.902 35.0548 136.381 38.4841 137.34 40.5064C138.111 42.1303 139.2 42.9372 140.602 42.9372C142.337 42.9372 143.477 41.9084 144.032 39.8407C144.546 37.889 144.803 35.0498 144.803 31.3279V31.338Z" fill="white"/>
<path d="M122.377 3.10154C122.377 1.09942 121.207 0 119.774 0C118.342 0 117.172 1.09942 117.172 3.10154C117.258 9.92994 119.774 12.1035 119.774 12.1035C119.774 12.1035 122.069 10.0863 122.377 3.10154Z" fill="#F6DFA4"/>
<path d="M112.149 5.32555C110.737 3.90339 109.133 3.94877 108.12 4.9574C107.106 5.96602 107.05 7.56974 108.457 8.9919C113.329 13.7778 116.648 13.5458 116.648 13.5458C116.648 13.5458 116.854 10.4998 112.149 5.32555Z" fill="#F6DFA4"/>
<path d="M127.339 5.32555C128.751 3.90339 130.355 3.94877 131.368 4.9574C132.382 5.96602 132.438 7.56974 131.031 8.9919C126.159 13.7778 122.84 13.5458 122.84 13.5458C122.84 13.5458 122.634 10.4998 127.339 5.32555Z" fill="#F6DFA4"/>
<path d="M169.868 76H157.013C155.929 76 155.384 75.6722 155.384 75.0115C155.384 74.3509 155.722 74.0231 156.403 74.0231C158.541 74.0231 164.764 73.9323 165.243 73.7558C165.617 73.6348 165.844 73.3826 165.929 72.9943C166.015 72.606 166.055 71.6024 166.055 69.9886V7.74627C166.055 5.47686 166.01 4.10009 165.929 3.62099C165.844 3.14189 165.596 2.84435 165.193 2.72331C164.512 2.54176 158.491 2.45603 156.968 2.45603C156.156 2.45603 155.747 2.15848 155.747 1.55835C155.747 0.902743 156.135 0.569885 156.917 0.569885H169.873V75.995L169.868 76Z" fill="#F6DFA4"/>
<path d="M0.00501728 0.569885H12.86C13.9443 0.569885 14.4889 0.8977 14.4889 1.55835C14.4889 2.219 14.151 2.5468 13.4702 2.5468C11.3319 2.5468 5.10869 2.63758 4.62959 2.81409C4.2564 2.93512 4.02944 3.18728 3.9437 3.5756C3.85797 3.96392 3.81762 4.9675 3.81762 6.58131V68.8236C3.81762 71.0931 3.86301 72.4698 3.9437 72.9489C4.02944 73.428 4.27656 73.7255 4.68001 73.8466C5.36083 74.0281 11.3823 74.1139 12.9054 74.1139C13.7173 74.1139 14.1258 74.4114 14.1258 75.0115C14.1258 75.6672 13.7375 76 12.9558 76H0V0.574933L0.00501728 0.569885Z" fill="#F6DFA4"/>
</svg>
