<svg width="141" height="74" viewBox="0 0 141 74" fill="none" xmlns="http://www.w3.org/2000/svg">
<path d="M23.7515 20.2044C23.7515 21.2827 23.4101 22.1612 22.7232 22.8481C22.0363 23.5351 21.1536 23.8806 20.0629 23.8806C17.8855 23.8806 16.7989 22.9522 16.7989 21.0954C16.7989 20.4625 17.0611 19.8339 17.5857 19.2011C17.7065 19.0512 17.7689 18.9221 17.7689 18.8097C17.7689 18.4767 17.5108 18.3101 16.9945 18.3101C15.6414 18.3101 14.609 19.2927 13.8929 21.2536C13.4932 22.3652 13.2975 25.088 13.2975 29.4178V38.3605C13.2975 39.3597 13.8429 39.8968 14.9295 39.9717C15.5748 40.0092 16.3409 40.0258 17.2277 40.0258C17.669 40.0633 17.8938 40.1924 17.8938 40.4172C17.8938 40.7128 17.7106 40.8626 17.3484 40.8626H10.8828C11.0452 40.8626 10.1376 40.8626 8.1642 40.8626H1.51539C1.06992 40.8626 0.849276 40.7419 0.849276 40.5004C0.849276 40.259 1.13239 40.1382 1.69444 40.1382C3.34726 40.1008 4.34226 39.9426 4.68781 39.6678C5.0292 39.3888 5.19994 38.5645 5.19994 37.1948L5.13748 22.1986C5.13748 20.9413 4.94597 20.0712 4.56295 19.5883C4.17992 19.1053 3.32227 18.8097 1.99418 18.6973C0.945032 18.6265 0.353833 18.5766 0.212281 18.5391C0.0707291 18.5058 0 18.3809 0 18.1727C0 17.9646 0.162332 17.8605 0.482905 17.8605H2.71859C5.82024 17.8605 9.1634 17.2693 12.7521 16.0786C12.952 16.8197 13.0561 17.6732 13.0561 18.639V20.9788C13.8221 19.1803 14.6589 17.9146 15.5624 17.1819C16.4658 16.4492 17.6482 16.0786 19.097 16.0786C20.4667 16.0786 21.5824 16.47 22.4526 17.2485C23.3185 18.027 23.7515 19.0137 23.7515 20.2003V20.2044Z" fill="white"/>
<path d="M52.0952 37.8609C52.0952 38.1607 51.7705 38.577 51.1293 39.1058C49.3974 40.5754 47.2616 41.3123 44.722 41.3123C43.0692 41.3123 41.8702 40.9917 41.1249 40.3547C40.3797 39.7178 39.8843 38.5687 39.6428 36.9159C37.8318 39.9592 35.3505 41.483 32.2072 41.483C30.4753 41.483 29.0722 40.9834 28.0064 39.98C26.9365 38.9767 26.4036 37.6777 26.4036 36.0832C26.4036 31.4037 30.7542 28.6393 39.4596 27.7858V26.6159C39.4596 22.9064 39.3181 20.6208 39.035 19.7673L38.9726 19.4884C38.4063 17.6315 36.9783 16.7031 34.6802 16.7031C33.3521 16.7031 32.2822 17.057 31.4786 17.7606C30.671 18.4642 30.2713 19.1511 30.2713 19.8214C30.2713 20.1919 30.7542 20.4168 31.7201 20.4917C33.1689 20.6041 33.8975 21.4201 33.8975 22.9397C33.8975 23.7557 33.6061 24.4343 33.0232 24.9714C32.4403 25.5085 31.6826 25.7791 30.7584 25.7791C29.5885 25.7791 28.631 25.4544 27.8899 24.8049C27.1447 24.1554 26.7699 23.3311 26.7699 22.3277C26.7699 20.7332 27.6359 19.2844 29.3678 17.9854C31.0997 16.6865 33.3771 16.037 36.1956 16.037C40.3839 16.037 43.3065 16.7239 44.9594 18.0978C46.2874 19.251 46.9535 21.2536 46.9535 24.1138V33.6352C46.9535 35.492 46.9744 36.5662 47.016 36.8659C47.2158 38.423 47.8028 39.2057 48.7687 39.2057C49.4515 39.2057 50.3009 38.7602 51.3084 37.8693C51.5082 37.6819 51.6705 37.5903 51.7913 37.5903C51.9911 37.5903 52.0952 37.6861 52.0952 37.8734V37.8609ZM39.4638 31.2288V28.5019C35.5545 29.2096 33.6019 31.2496 33.6019 34.6261C33.6019 37.224 34.5678 38.5229 36.5037 38.5229C37.5903 38.5229 38.3564 37.965 38.8018 36.8534C39.2432 35.7418 39.468 33.8642 39.468 31.2288H39.4638Z" fill="white"/>
<path d="M64.1311 15.8038L64.181 26.5493V46.1542C64.181 47.678 64.331 53.9437 64.6349 54.2018C64.9388 54.4641 65.9754 54.5932 67.749 54.5932C68.1903 54.5932 68.4151 54.7222 68.4151 54.9845C68.4151 55.2468 68.2319 55.3759 67.8739 55.3759H52.6404C52.1575 55.3759 51.916 55.2593 51.916 55.0178C51.916 54.8388 52.3781 54.7347 53.3065 54.7056C54.6763 54.6681 55.484 54.5307 55.7254 54.2851C55.9669 54.0436 56.0876 53.3067 56.0876 52.0744V21.4992C56.0876 20.0795 56.1168 15.8038 56.1168 15.8038H64.1394H64.1311Z" fill="white"/>
<path d="M93.0659 21.7615C93.0659 22.6524 92.7828 23.3768 92.2207 23.9347C91.6545 24.4926 90.9301 24.7715 90.0433 24.7715C87.9076 24.7715 86.8418 23.9014 86.8418 22.1528C86.8418 21.7074 86.9708 21.1786 87.2331 20.5666C87.4954 19.9546 87.6245 19.5175 87.6245 19.2593C87.6245 18.5557 87.3331 17.9521 86.7502 17.4483C86.1673 16.9487 85.4512 16.6948 84.6061 16.6948C80.9382 16.6948 79.1064 20.4625 79.1064 27.9981C79.1064 32.3029 79.9099 35.3838 81.5253 37.2406C82.7742 38.6519 84.3063 39.3555 86.1174 39.3555C87.9284 39.3555 89.9434 38.2231 91.921 35.9583C92.1624 35.6627 92.3831 35.5128 92.5871 35.5128C92.7495 35.5128 92.8286 35.6252 92.8286 35.8459C92.8286 36.5495 92.1042 37.5362 90.6512 38.7976C88.5571 40.617 86.0383 41.5246 83.0948 41.5246C79.4686 41.5246 76.3753 40.3256 73.819 37.9317C71.2586 35.5378 69.9805 32.6318 69.9805 29.2179C69.9805 25.5084 71.3294 22.3776 74.0313 19.8339C76.7291 17.2901 80.0556 16.0203 84.0024 16.0203C86.542 16.0203 88.6861 16.5782 90.4389 17.6898C92.1916 18.8014 93.0659 20.1586 93.0659 21.7531V21.7615Z" fill="white"/>
<path d="M118.933 34.0141C118.933 34.8301 118.408 35.9084 117.363 37.2448C115.107 40.105 112.167 41.533 108.541 41.533C104.469 41.533 101.126 40.3464 98.5076 37.9692C95.8889 35.592 94.5774 32.5486 94.5774 28.8391C94.5774 25.1296 95.8472 22.1653 98.3868 19.734C100.926 17.3026 104.086 16.0869 107.875 16.0869C110.452 16.0869 112.65 16.6074 114.461 17.6482C116.476 18.7973 117.784 20.4501 118.391 22.6025C118.554 23.2728 118.675 24.068 118.754 24.9964C117.825 25.0963 114.099 25.1712 107.575 25.2212C106.568 25.2212 105.298 25.2587 103.766 25.3336C103.645 26.6659 103.583 27.7941 103.583 28.7142C103.583 33.0398 104.569 36.1123 106.543 37.9234C107.713 38.9975 109.141 39.5304 110.835 39.5304C112.246 39.5304 113.604 39.0849 114.915 38.194C116.222 37.3031 117.222 36.154 117.908 34.7426C118.229 34.039 118.491 33.6852 118.695 33.6852C118.858 33.6852 118.937 33.7976 118.937 34.0182L118.933 34.0141ZM111.318 24.2678C111.36 21.4326 111.135 19.4592 110.652 18.3518C110.169 17.2485 109.324 16.6948 108.112 16.6948C105.656 16.6948 104.245 19.2177 103.882 24.2678H111.314H111.318Z" fill="white"/>
<path d="M140.328 33.1231C140.328 35.6086 139.503 37.6236 137.859 39.1641C136.21 40.7045 134.083 41.4747 131.472 41.4747C130.186 41.4747 128.662 41.1791 126.893 40.5837C125.448 40.1008 124.503 39.8593 124.062 39.8593C123.3 39.8593 122.796 40.1299 122.555 40.667C122.313 41.2041 122.134 41.4747 122.013 41.4747C121.772 41.4747 121.651 41.3415 121.651 41.0833C121.651 40.8585 121.684 40.5046 121.747 40.0175C121.843 39.3056 121.893 38.0733 121.893 36.3164V33.5686C121.893 33.1564 121.993 32.9524 122.192 32.9524C122.434 32.9524 122.613 33.2314 122.734 33.7892C123.096 35.7585 124.116 37.3988 125.802 38.7186C127.488 40.0383 129.374 40.6961 131.46 40.6961C132.784 40.6961 133.858 40.3173 134.678 39.5554C135.502 38.7935 135.91 37.8027 135.91 36.5745C135.91 35.6086 135.527 34.7926 134.761 34.1223C134.195 33.6394 132.684 33.0274 130.227 32.2863C127.205 31.3579 125.019 30.2338 123.67 28.9182C122.321 27.6026 121.647 25.9206 121.647 23.8806C121.647 21.6907 122.451 19.8339 124.066 18.3101C125.677 16.7864 127.65 16.0287 129.99 16.0287C130.877 16.0287 132.409 16.2868 134.582 16.8072C134.903 16.8821 135.144 16.9196 135.307 16.9196C136.194 16.9196 136.855 16.42 137.301 15.4167C137.38 15.2293 137.484 15.1377 137.605 15.1377C137.888 15.1377 138.029 15.3625 138.029 15.808L137.971 16.8655C137.93 17.0154 137.909 17.2735 137.909 17.644C137.909 19.1678 138.009 20.7249 138.213 22.3194V22.5983C138.213 22.8939 138.092 23.0438 137.851 23.0438C137.646 23.0438 137.488 22.8773 137.368 22.5442C136.198 18.7556 133.82 16.8655 130.236 16.8655C128.908 16.8655 127.809 17.1986 126.943 17.8688C126.077 18.5391 125.644 19.3926 125.644 20.4293C125.644 21.3952 126.006 22.157 126.73 22.7107C127.455 23.2686 128.866 23.8973 130.96 24.605C134.628 25.7916 137.105 26.9823 138.392 28.1688C139.682 29.3553 140.328 31.0082 140.328 33.1231Z" fill="white"/>
<path d="M23.6724 67.9823C24.4884 67.9823 25.1629 68.3487 25.5792 68.9565V68.1405H26.7532V73.2281H25.5792V72.3829C25.1837 72.9782 24.4843 73.3863 23.6724 73.3863C22.2028 73.3863 21.1287 72.2122 21.1287 70.6843C21.1287 69.1563 22.2028 67.9823 23.6724 67.9823ZM23.9888 72.3871C24.9339 72.3871 25.6208 71.6835 25.6208 70.6884C25.6208 69.6934 24.9173 68.9898 23.9888 68.9898C23.0604 68.9898 22.3485 69.6851 22.3485 70.6884C22.3485 71.6918 23.023 72.3871 23.9888 72.3871Z" fill="white"/>
<path d="M34.9841 64.6808V73.2281H33.8101V64.6808H34.9841Z" fill="white"/>
<path d="M43.4023 66.3836C43.4023 66.8124 43.065 67.158 42.6279 67.158C42.1907 67.158 41.8535 66.8083 41.8535 66.3836C41.8535 65.959 42.1907 65.6092 42.6279 65.6092C43.065 65.6092 43.4023 65.959 43.4023 66.3836ZM43.2149 68.1405V73.2281H42.0409V68.1405H43.2149Z" fill="white"/>
<path d="M52.1492 67.9823C52.8362 67.9823 53.3524 68.2612 53.5814 68.4486L53.1026 69.1355C52.882 68.9357 52.5864 68.8191 52.1492 68.8191C51.5913 68.8191 51.3541 69.0481 51.3541 69.4062C51.3541 69.7642 51.6913 69.9349 52.3074 70.1306C52.9944 70.3387 53.8687 70.676 53.8687 71.6918C53.8687 73.0241 52.7154 73.3904 51.7496 73.3904C50.9336 73.3904 50.2675 73.0115 49.9094 72.5078L50.5047 71.8833C50.7712 72.2205 51.25 72.5078 51.8787 72.5078C52.3241 72.5078 52.7737 72.2996 52.7737 71.7418C52.7737 71.1839 52.1493 71.0839 51.4707 70.8175C50.9044 70.5885 50.2383 70.2513 50.2383 69.4644C50.2383 68.5776 50.9627 67.9823 52.1451 67.9823H52.1492Z" fill="white"/>
<path d="M62.8864 67.9823C64.3893 67.9823 65.5592 69.0273 65.5592 70.6468V70.8258H61.3543C61.3543 71.8708 62.1578 72.4454 63.003 72.4454C63.7107 72.4454 64.1562 72.2164 64.585 71.671L65.4301 72.1081C64.8931 72.9824 63.998 73.3904 62.9238 73.3904C61.3834 73.3904 60.1511 72.208 60.1511 70.676C60.1511 69.1439 61.3834 67.9823 62.8864 67.9823ZM64.4268 70.1472C64.3269 69.3229 63.7107 68.8649 62.9156 68.8649C62.0621 68.8649 61.4542 69.3604 61.3959 70.1472H64.4268Z" fill="white"/>
<path d="M73.382 68.1405V68.8858C73.5111 68.6068 74.0773 67.9823 74.9017 67.9823C75.3305 67.9823 75.7052 68.103 75.8842 68.2196L75.4055 69.2146C75.2556 69.0939 74.9683 68.994 74.5811 68.994C73.6568 68.994 73.3779 69.8974 73.3779 70.1555V73.2281H72.2039V68.1405H73.3779H73.382Z" fill="white"/>
<path d="M82.5746 68.1405L84.165 71.6502L85.7554 68.1405H87.1376L84.5522 73.2281H83.7778L81.1924 68.1405H82.5746Z" fill="white"/>
<path d="M94.6606 66.3836C94.6606 66.8124 94.3233 67.158 93.8862 67.158C93.449 67.158 93.1118 66.8083 93.1118 66.3836C93.1118 65.959 93.449 65.6092 93.8862 65.6092C94.3233 65.6092 94.6606 65.959 94.6606 66.3836ZM94.4732 68.1405V73.2281H93.2992V68.1405H94.4732Z" fill="white"/>
<path d="M105.656 72.8617C105.468 73.0116 104.881 73.3904 103.928 73.3904C102.429 73.3904 101.143 72.2289 101.143 70.6885C101.143 69.148 102.425 67.9865 103.928 67.9865C104.881 67.9865 105.468 68.3654 105.656 68.5152L105.227 69.3104C105.056 69.173 104.64 68.9524 104.082 68.9524C103.108 68.9524 102.371 69.7059 102.371 70.6926C102.371 71.6793 103.108 72.4329 104.082 72.4329C104.64 72.4329 105.056 72.2122 105.227 72.0748L105.656 72.87V72.8617Z" fill="white"/>
<path d="M114.64 67.9823C116.139 67.9823 117.313 69.0273 117.313 70.6468V70.8258H113.108C113.108 71.8708 113.912 72.4454 114.757 72.4454C115.46 72.4454 115.91 72.2164 116.339 71.671L117.184 72.1081C116.647 72.9824 115.752 73.3904 114.678 73.3904C113.137 73.3904 111.905 72.208 111.905 70.676C111.905 69.1439 113.137 67.9823 114.64 67.9823ZM116.181 70.1472C116.081 69.3229 115.465 68.8649 114.669 68.8649C113.816 68.8649 113.208 69.3604 113.15 70.1472H116.181Z" fill="white"/>
<path d="M62.3869 2.98924C62.3869 1.06164 61.2586 0 59.8806 0C58.5025 0 57.3743 1.06164 57.3743 2.98924C57.4575 9.57556 59.8806 11.6697 59.8806 11.6697C59.8806 11.6697 62.0913 9.72543 62.3869 2.98924Z" fill="#37A64D"/>
<path d="M52.5239 5.13335C51.1625 3.76363 49.6138 3.80526 48.6354 4.77947C47.6571 5.74951 47.6029 7.29827 48.9643 8.66799C53.6647 13.2851 56.8621 13.0603 56.8621 13.0603C56.8621 13.0603 57.0619 10.121 52.5239 5.13335Z" fill="#37A64D"/>
<path d="M67.1747 5.13335C68.5361 3.76363 70.0848 3.80526 71.0632 4.77947C72.0415 5.74951 72.0957 7.29827 70.7343 8.66799C66.0339 13.2851 62.8365 13.0603 62.8365 13.0603C62.8365 13.0603 62.6367 10.121 67.1747 5.13335Z" fill="#37A64D"/>
</svg>
