<svg width="169" height="78" viewBox="0 0 169 78" fill="none" xmlns="http://www.w3.org/2000/svg">
<path d="M30.1899 53.8731C30.1899 54.1483 29.7952 54.2859 29.0057 54.2859H26.3368C24.3994 54.2461 22.3642 54.6988 20.2276 55.6439C19.9886 55.72 19.8509 55.7562 19.8111 55.7562C19.4562 55.7562 19.257 55.4013 19.2172 54.6952C19.2172 54.3403 19.1593 53.8514 19.0398 53.2213C17.4572 54.9088 15.3605 55.7526 12.7531 55.7526C9.27297 55.7526 6.40485 54.4779 4.15237 51.9248C1.89989 49.3718 0.77002 46.1343 0.77002 42.2051C0.77002 38.2759 1.91799 34.9696 4.2103 32.518C6.50262 30.0663 9.53007 28.8351 13.2854 28.8351C15.7371 28.8351 17.7361 29.7404 19.2788 31.5438V23.298C19.2788 19.7636 19.1194 17.6741 18.8044 17.0258C18.4857 16.3776 17.4391 16.0734 15.661 16.1132C14.6326 16.1132 14.1183 15.9756 14.1183 15.7004C14.1183 15.4252 14.3573 15.2876 14.8354 15.2876C18.4676 15.2876 21.9405 14.7589 25.254 13.6978C25.732 13.5421 26.0724 13.4624 26.2716 13.4624C26.7098 13.4624 26.9307 13.9332 26.9307 14.8747V51.5699C26.9307 52.2363 27.0285 52.6889 27.2276 52.9243C27.5028 53.2792 28.1945 53.4349 29.3027 53.3951C29.8966 53.3552 30.1935 53.5146 30.1935 53.8658L30.1899 53.8731ZM19.2751 48.5714V35.7301C19.2751 33.9629 18.9782 32.6483 18.3807 31.7828C17.6238 30.6856 16.57 30.1351 15.2156 30.1351C11.3951 30.1351 9.48662 34.3178 9.48662 42.6795C9.48662 46.4095 9.9719 49.2957 10.9497 51.3382C11.9238 53.3806 13.2854 54.4018 15.0382 54.4018C16.0739 54.4018 17.0371 53.9419 17.9316 53.0185C18.8261 52.095 19.2751 50.6139 19.2751 48.5714Z" fill="white"/>
<path d="M54.2141 47.8037C54.2141 48.6692 53.6999 49.8063 52.6714 51.2186C50.4551 54.2424 47.5689 55.7526 44.0091 55.7526C40.0148 55.7526 36.7338 54.496 34.1627 51.9827C31.5915 49.4695 30.3059 46.2501 30.3059 42.3246C30.3059 38.399 31.5517 35.2666 34.0431 32.6954C36.5346 30.1242 39.6382 28.8387 43.3573 28.8387C45.8886 28.8387 48.0433 29.3891 49.8214 30.49C51.7986 31.7068 53.0842 33.4559 53.6781 35.7337C53.8375 36.4399 53.9534 37.2837 54.033 38.265C53.1241 38.3701 49.4665 38.4497 43.0603 38.5004C42.0717 38.5004 40.8259 38.5403 39.3231 38.6199C39.2036 40.0286 39.1456 41.2201 39.1456 42.1978C39.1456 46.7752 40.1162 50.02 42.0536 51.9357C43.2015 53.0691 44.6066 53.6377 46.2652 53.6377C47.6486 53.6377 48.9849 53.1669 50.2704 52.2254C51.556 51.2838 52.5338 50.067 53.2074 48.575C53.5224 47.829 53.7795 47.456 53.9787 47.456C54.138 47.456 54.2141 47.5755 54.2141 47.8109V47.8037ZM46.7432 37.4973C46.7831 34.4952 46.5658 32.4093 46.0914 31.2396C45.617 30.0699 44.7877 29.4869 43.5999 29.4869C41.1881 29.4869 39.8047 32.1558 39.4462 37.4973H46.7432Z" fill="white"/>
<path d="M70.3506 54.6082C70.3506 54.9016 69.601 55.05 68.1054 55.05C67.7505 55.05 66.646 55.0102 64.7955 54.9305C63.8503 54.8907 62.9232 54.8726 62.0179 54.8726C61.1125 54.8726 59.5336 54.9124 57.1725 54.9921L55.3981 55.05C54.5289 55.0899 54.098 54.9523 54.098 54.6372C54.098 54.3221 54.5507 54.1882 55.4632 54.2244C56.8466 54.2642 57.6469 54.1266 57.8642 53.8152C58.0815 53.5037 58.1901 52.3268 58.1901 50.288V19.2964C58.1901 17.9638 58.0489 17.1707 57.77 16.9172C57.4876 16.6601 56.6655 16.5333 55.3039 16.5333C54.3008 16.5333 53.801 16.3885 53.801 16.0951C53.801 15.762 54.3116 15.5737 55.3365 15.5302C59.7437 15.3745 63.3469 14.7046 66.139 13.5276V48.8684C66.139 51.5373 66.2078 53.0981 66.3454 53.5508C66.483 54.0035 66.9683 54.2099 67.7976 54.1701H69.5793C70.0935 54.1701 70.3506 54.3185 70.3506 54.6119V54.6082Z" fill="white"/>
<path d="M94.0779 47.8037C94.0779 48.6692 93.5636 49.8063 92.5352 51.2186C90.3189 54.2424 87.4327 55.7526 83.8729 55.7526C79.8785 55.7526 76.5976 54.496 74.0264 51.9827C71.4553 49.4695 70.1697 46.2501 70.1697 42.3246C70.1697 38.399 71.4154 35.2666 73.9069 32.6954C76.3984 30.1242 79.5019 28.8387 83.221 28.8387C85.7524 28.8387 87.9071 29.3891 89.6888 30.49C91.666 31.7068 92.9516 33.4559 93.5455 35.7337C93.7048 36.4399 93.8207 37.2837 93.9004 38.265C92.9915 38.3701 89.3339 38.4497 82.9277 38.5004C81.9391 38.5004 80.6933 38.5403 79.1905 38.6199C79.071 40.0286 79.013 41.2201 79.013 42.1978C79.013 46.7752 79.9799 50.02 81.921 51.9357C83.0689 53.0691 84.4704 53.6377 86.1326 53.6377C87.516 53.6377 88.8522 53.1669 90.1378 52.2254C91.4234 51.2838 92.4012 50.067 93.0747 48.575C93.3898 47.829 93.6469 47.456 93.8461 47.456C94.0018 47.456 94.0815 47.5755 94.0815 47.8109L94.0779 47.8037ZM86.6034 37.4973C86.6432 34.4952 86.4259 32.4093 85.9515 31.2396C85.4771 30.0699 84.6479 29.4869 83.46 29.4869C81.0482 29.4869 79.6649 32.1558 79.3063 37.4973H86.6034Z" fill="white"/>
<path d="M110.57 54.6372C110.57 54.9124 110.392 55.05 110.037 55.05H95.0846C94.6102 55.05 94.3749 54.9233 94.3749 54.6734C94.3749 54.4851 94.8275 54.3764 95.7401 54.3438C97.0836 54.304 97.8767 54.1555 98.1121 53.8984C98.3511 53.6413 98.467 52.8627 98.467 51.559V34.5676C98.467 33.0684 98.3366 32.1703 98.0831 31.8734C97.826 31.5764 97.0438 31.4279 95.7401 31.4279C94.9108 31.4279 94.4256 31.4098 94.2879 31.37C94.1503 31.3301 94.0815 31.1926 94.0815 30.9572C94.0815 30.6819 94.3785 30.5443 94.9724 30.5443C99.3216 30.5045 103.041 29.8382 106.126 28.5417C106.206 29.0125 106.304 30.3089 106.423 32.4274V50.9796C106.423 52.5911 106.572 53.5327 106.869 53.8079C107.165 54.0831 108.183 54.2207 109.925 54.2207C110.36 54.2207 110.577 54.3583 110.577 54.6336L110.57 54.6372ZM105.279 21.8458C105.279 22.9467 104.895 23.8883 104.127 24.6741C103.359 25.4599 102.429 25.851 101.335 25.851C100.241 25.851 99.2528 25.4781 98.4815 24.7321C97.7138 23.9861 97.3299 23.0445 97.3299 21.9038C97.3299 20.7631 97.7138 19.9012 98.4815 19.195C99.2492 18.4888 100.241 18.1339 101.455 18.1339C102.548 18.1339 103.457 18.4888 104.185 19.195C104.913 19.9012 105.279 20.7848 105.279 21.8458Z" fill="white"/>
<path d="M129.669 51.2223C129.669 51.6532 129.288 52.2218 128.531 52.9315C126.58 54.7784 123.889 55.6982 120.463 55.6982C117.316 55.6982 115.245 54.9341 114.249 53.4023C113.85 52.812 113.619 52.2652 113.561 51.7546C113.503 51.244 113.47 49.9294 113.47 47.8073V44.979C113.55 44.233 113.59 43.4472 113.59 42.6215L113.47 41.3867V22.7476C113.47 22.0414 113.372 21.6286 113.173 21.5127C112.974 21.3932 112.38 21.3352 111.395 21.3352C110.207 21.3352 109.614 21.1795 109.614 20.8644C109.614 20.6291 109.831 20.4733 110.265 20.3937C113.981 20.2742 117.186 18.2716 119.876 14.3859C120.231 13.8354 120.507 13.5602 120.706 13.5602C120.945 13.5602 121.061 13.8354 121.061 14.3859C121.021 17.7646 121.158 19.6078 121.477 19.9229C121.792 20.238 122.763 20.3937 124.385 20.3937C126.007 20.3937 127.213 20.314 127.887 20.1583C127.967 20.1185 128.046 20.1003 128.122 20.1003C128.282 20.1003 128.361 20.2235 128.361 20.4697C128.361 21.0455 128.104 21.3352 127.597 21.3352C125.989 21.3751 124.204 21.3968 122.245 21.3968H121.423V22.6281C121.423 33.0974 121.502 48.3288 121.662 50.125C122.024 52.392 123.147 53.5218 125.033 53.5218C125.877 53.5218 126.96 52.9315 128.285 51.7546C128.926 51.2042 129.328 50.9289 129.488 50.9289C129.607 50.9289 129.669 51.0267 129.669 51.2223Z" fill="white"/>
<path d="M146.932 51.2223C146.932 51.6532 146.551 52.2218 145.798 52.9315C143.846 54.7784 141.156 55.6982 137.73 55.6982C134.583 55.6982 132.511 54.9341 131.516 53.4023C131.117 52.812 130.889 52.2652 130.827 51.7546C130.766 51.244 130.737 49.9294 130.737 47.8073V44.979C130.817 44.233 130.856 43.4472 130.856 42.6215L130.737 41.3867V22.7476C130.737 22.0414 130.639 21.6286 130.44 21.5127C130.241 21.3932 129.651 21.3352 128.662 21.3352C127.474 21.3352 126.884 21.1795 126.884 20.8644C126.884 20.6291 127.101 20.4733 127.536 20.3937C131.251 20.2742 134.456 18.2716 137.147 14.3859C137.502 13.8354 137.78 13.5602 137.976 13.5602C138.211 13.5602 138.331 13.8354 138.331 14.3859C138.291 17.7646 138.429 19.6078 138.747 19.9229C139.062 20.238 140.033 20.3937 141.655 20.3937C143.278 20.3937 144.484 20.314 145.154 20.1583C145.233 20.1185 145.313 20.1003 145.393 20.1003C145.548 20.1003 145.628 20.2235 145.628 20.4697C145.628 21.0455 145.374 21.3352 144.864 21.3352C143.256 21.3751 141.471 21.3968 139.511 21.3968H138.689V22.6281C138.689 33.0974 138.769 48.3288 138.925 50.125C139.287 52.392 140.41 53.5218 142.296 53.5218C143.14 53.5218 144.223 52.9315 145.548 51.7546C146.189 51.2042 146.591 50.9289 146.754 50.9289C146.874 50.9289 146.935 51.0267 146.935 51.2223H146.932Z" fill="white"/>
<path d="M168.996 47.8037C168.996 48.6692 168.482 49.8063 167.454 51.2186C165.237 54.2424 162.351 55.7526 158.791 55.7526C154.797 55.7526 151.516 54.496 148.945 51.9827C146.374 49.4695 145.088 46.2501 145.088 42.3246C145.088 38.399 146.334 35.2666 148.825 32.6954C151.317 30.1242 154.42 28.8387 158.14 28.8387C160.671 28.8387 162.826 29.3891 164.607 30.49C166.584 31.7068 167.87 33.4559 168.464 35.7337C168.623 36.4399 168.739 37.2837 168.819 38.265C167.91 38.3701 164.252 38.4497 157.846 38.5004C156.858 38.5004 155.612 38.5403 154.109 38.6199C153.989 40.0286 153.931 41.2201 153.931 42.1978C153.931 46.7752 154.898 50.02 156.839 51.9357C157.987 53.0691 159.389 53.6377 161.051 53.6377C162.434 53.6377 163.771 53.1669 165.056 52.2254C166.342 51.2838 167.32 50.067 167.993 48.575C168.308 47.829 168.565 47.456 168.765 47.456C168.92 47.456 169 47.5755 169 47.8109L168.996 47.8037ZM161.522 37.4973C161.562 34.4952 161.344 32.4093 160.87 31.2396C160.396 30.0699 159.566 29.4869 158.378 29.4869C155.967 29.4869 154.583 32.1558 154.225 37.4973H161.522Z" fill="white"/>
<path d="M88.0518 4.07587C88.0518 1.66767 86.6431 0.342255 84.9193 0.342255C83.1956 0.342255 81.7869 1.66767 81.7869 4.07587C81.8883 12.3 84.9193 14.9146 84.9193 14.9146C84.9193 14.9146 87.6824 12.4846 88.0518 4.07587Z" fill="#E1251B"/>
<path d="M75.7356 6.75204C74.0371 5.04276 72.1033 5.09708 70.883 6.31024C69.6626 7.52339 69.5937 9.4572 71.2921 11.1665C77.1587 16.928 81.1531 16.6492 81.1531 16.6492C81.1531 16.6492 81.403 12.9808 75.7356 6.75204Z" fill="#E1251B"/>
<path d="M94.0308 6.75204C95.7292 5.04276 97.663 5.09708 98.8834 6.31024C100.104 7.52339 100.173 9.4572 98.4742 11.1665C92.6076 16.928 88.6132 16.6492 88.6132 16.6492C88.6132 16.6492 88.3633 12.9808 94.0308 6.75204Z" fill="#E1251B"/>
<path d="M28.1873 71.0455C29.1723 71.0455 29.9907 71.491 30.4941 72.2225V71.2375H31.9136V77.3938H30.4941V76.3726C30.0124 77.0932 29.1723 77.5857 28.1873 77.5857C26.4092 77.5857 25.1091 76.1662 25.1091 74.3156C25.1091 72.4651 26.4092 71.0455 28.1873 71.0455ZM28.5711 76.3726C29.7119 76.3726 30.5412 75.5179 30.5412 74.3156C30.5412 73.1134 29.6865 72.2587 28.5711 72.2587C27.4558 72.2587 26.5866 73.0989 26.5866 74.3156C26.5866 75.5324 27.4051 76.3726 28.5711 76.3726Z" fill="white"/>
<path d="M41.8651 67.0548V77.3938H40.4456V67.0548H41.8651Z" fill="white"/>
<path d="M52.0482 69.1118C52.0482 69.6296 51.639 70.0497 51.1103 70.0497C50.5816 70.0497 50.1724 69.6296 50.1724 69.1118C50.1724 68.5939 50.5816 68.1738 51.1103 68.1738C51.639 68.1738 52.0482 68.5939 52.0482 69.1118ZM51.8201 71.2375V77.3938H50.4005V71.2375H51.8201Z" fill="white"/>
<path d="M62.6263 71.0455C63.4556 71.0455 64.0821 71.3823 64.3573 71.6105L63.7815 72.4398C63.5171 72.2008 63.155 72.0559 62.6263 72.0559C61.9527 72.0559 61.663 72.3311 61.663 72.7657C61.663 73.2003 62.0722 73.4031 62.8182 73.6421C63.6475 73.8956 64.705 74.3048 64.705 75.5288C64.705 77.1403 63.3107 77.5857 62.1447 77.5857C61.1597 77.5857 60.3521 77.1294 59.9211 76.5174L60.6418 75.7606C60.9677 76.1698 61.5435 76.5174 62.3004 76.5174C62.84 76.5174 63.3832 76.2639 63.3832 75.5904C63.3832 74.9168 62.6263 74.7973 61.8079 74.4714C61.1234 74.1961 60.3159 73.7869 60.3159 72.8381C60.3159 71.7662 61.1922 71.0455 62.6227 71.0455H62.6263Z" fill="white"/>
<path d="M75.609 71.0455C77.4233 71.0455 78.8429 72.3094 78.8429 74.2686V74.4858H73.7585C73.7585 75.7497 74.7327 76.445 75.7539 76.445C76.6085 76.445 77.1481 76.1698 77.666 75.5071L78.6872 76.0358C78.039 77.0932 76.9562 77.5857 75.6561 77.5857C73.7911 77.5857 72.3027 76.1553 72.3027 74.3048C72.3027 72.4543 73.7947 71.0455 75.609 71.0455ZM77.474 73.6674C77.3545 72.6679 76.6085 72.1175 75.6452 72.1175C74.6132 72.1175 73.878 72.7186 73.8056 73.6674H77.4704H77.474Z" fill="white"/>
<path d="M88.3053 71.2375V72.1392C88.461 71.8024 89.1455 71.0455 90.145 71.0455C90.6628 71.0455 91.1191 71.1904 91.3364 71.3353L90.7606 72.5375C90.5795 72.3927 90.2319 72.2732 89.7611 72.2732C88.6421 72.2732 88.3053 73.3668 88.3053 73.6783V77.3938H86.8857V71.2375H88.3053Z" fill="white"/>
<path d="M99.4231 71.2375L101.346 75.4817L103.269 71.2375H104.938L101.813 77.3938H100.875L97.75 71.2375H99.4194H99.4231Z" fill="white"/>
<path d="M114.042 69.1118C114.042 69.6296 113.633 70.0497 113.104 70.0497C112.576 70.0497 112.167 69.6296 112.167 69.1118C112.167 68.5939 112.576 68.1738 113.104 68.1738C113.633 68.1738 114.042 68.5939 114.042 69.1118ZM113.814 71.2375V77.3938H112.395V71.2375H113.814Z" fill="white"/>
<path d="M127.336 76.9484C127.108 77.1294 126.398 77.5857 125.243 77.5857C123.429 77.5857 121.875 76.1806 121.875 74.3156C121.875 72.4506 123.425 71.0455 125.243 71.0455C126.398 71.0455 127.108 71.5018 127.336 71.6829L126.818 72.6462C126.616 72.4796 126.109 72.2153 125.435 72.2153C124.258 72.2153 123.367 73.1278 123.367 74.3193C123.367 75.5107 124.258 76.4233 125.435 76.4233C126.109 76.4233 126.612 76.1589 126.818 75.9923L127.336 76.9556V76.9484Z" fill="white"/>
<path d="M138.204 71.0455C140.018 71.0455 141.438 72.3094 141.438 74.2686V74.4858H136.353C136.353 75.7497 137.328 76.445 138.349 76.445C139.204 76.445 139.743 76.1698 140.261 75.5071L141.282 76.0358C140.634 77.0932 139.551 77.5857 138.251 77.5857C136.386 77.5857 134.898 76.1553 134.898 74.3048C134.898 72.4543 136.39 71.0455 138.204 71.0455ZM140.069 73.6674C139.95 72.6679 139.203 72.1175 138.24 72.1175C137.205 72.1175 136.473 72.7186 136.401 73.6674H140.069Z" fill="white"/>
</svg>
